<svg width="48" height="48" viewBox="0 0 48 48" fill="none" xmlns="http://www.w3.org/2000/svg">
<path d="M46.5938 45.1875H32.529L30.5707 39.0186C31.5171 38.6297 32.4214 38.1589 33.2756 37.6161C33.8512 39.2617 35.4187 40.4457 37.2583 40.4457C39.5845 40.4457 41.4771 38.5532 41.4771 36.227C41.4771 34.3878 40.2936 32.8206 38.6484 32.2447C39.7011 30.5886 40.4803 28.7427 40.9231 26.771C41.4762 27.0378 42.096 27.1874 42.7501 27.1874C45.0763 27.1874 46.9688 25.2949 46.9688 22.9687C46.9688 20.6424 45.0763 18.7499 42.7501 18.7499C42.0959 18.7499 41.476 18.8995 40.9229 19.1664C40.4802 17.1948 39.7011 15.3491 38.6487 13.6929C39.2309 13.4907 39.7773 13.1577 40.2414 12.6935C41.8864 11.0486 41.8864 8.37216 40.2414 6.72722C38.5965 5.08228 35.9199 5.08256 34.2752 6.72722C33.8109 7.19138 33.4779 7.73784 33.2757 8.31994C31.6196 7.26759 29.7739 6.48844 27.8022 6.04575C28.0691 5.49281 28.2188 4.87294 28.2188 4.21875C28.2188 1.89253 26.3262 0 24 0C21.6738 0 19.7812 1.89253 19.7812 4.21875C19.7812 4.87294 19.9309 5.49281 20.1978 6.04594C18.226 6.48872 16.3803 7.26788 14.7241 8.32031C14.1481 6.67528 12.5811 5.49178 10.7418 5.49178C8.41556 5.49178 6.52303 7.38431 6.52303 9.71053C6.52303 11.5497 7.70653 13.1168 9.35156 13.6928C8.29903 15.349 7.51987 17.1949 7.07719 19.1666C6.52406 18.8996 5.90419 18.75 5.25 18.75C2.92378 18.75 1.03125 20.6425 1.03125 22.9688C1.03125 25.295 2.92378 27.1875 5.25 27.1875C5.90409 27.1875 6.52387 27.0379 7.077 26.7711C7.51978 28.7428 8.29903 30.5887 9.35166 32.2448C7.70653 32.8208 6.52303 34.3879 6.52303 36.2271C6.52303 38.5533 8.41556 40.4458 10.7418 40.4458C12.5814 40.4458 14.1488 39.2618 14.7245 37.6162C15.5787 38.159 16.483 38.6298 17.4294 39.0187L15.471 45.1875H1.40625C0.629625 45.1875 0 45.8171 0 46.5938C0 47.3704 0.629625 48 1.40625 48H46.5938C47.3704 48 48 47.3704 48 46.5938C48 45.8171 47.3704 45.1875 46.5938 45.1875ZM35.2168 32.1968L33.2176 30.1975C34.5102 28.5529 35.3722 26.5549 35.6342 24.375H38.4631C38.1781 27.3281 37.0061 30.0257 35.2168 32.1968ZM35.2168 13.7407C37.0062 15.9117 38.1781 18.6094 38.463 21.5625H35.6341C35.3722 19.3826 34.5101 17.3846 33.2175 15.74L35.2168 13.7407ZM25.4062 8.50575C28.3594 8.79066 31.0569 9.96253 33.2281 11.7519L31.2289 13.7512C29.5842 12.4586 27.5862 11.5966 25.4063 11.3347V8.50575H25.4062ZM32.9062 22.9688C32.9062 26.4417 30.9079 29.4562 28.0009 30.9242L26.5431 26.3321C27.5603 25.5611 28.2188 24.3406 28.2188 22.9688C28.2188 20.6425 26.3262 18.75 24 18.75C21.6738 18.75 19.7812 20.6425 19.7812 22.9688C19.7812 24.3406 20.4397 25.5611 21.4569 26.3321L19.9991 30.9242C17.0921 29.4562 15.0938 26.4417 15.0938 22.9688C15.0938 18.0578 19.0891 14.0625 24 14.0625C28.9109 14.0625 32.9062 18.0578 32.9062 22.9688ZM25.3208 31.7769C24.8897 31.8413 24.4487 31.875 24 31.875C23.5513 31.875 23.1103 31.8413 22.6792 31.7769L24 27.6164L25.3208 31.7769ZM24 34.6875C24.7448 34.6875 25.4734 34.6168 26.18 34.4833L27.036 37.1799C26.0565 37.389 25.041 37.5 24 37.5C22.959 37.5 21.9435 37.389 20.9639 37.1799L21.8199 34.4833C22.5266 34.6168 23.2552 34.6875 24 34.6875ZM22.5938 8.50575V11.3347C20.4139 11.5966 18.4159 12.4586 16.7712 13.7512L14.772 11.7519C16.9431 9.96262 19.6406 8.79066 22.5938 8.50575ZM12.7832 13.7407L14.7825 15.74C13.4899 17.3846 12.6278 19.3826 12.3659 21.5625H9.537C9.82191 18.6094 10.9939 15.9118 12.7832 13.7407ZM12.7832 32.1968C10.9939 30.0257 9.82191 27.3281 9.537 24.375H12.3659C12.6278 26.5549 13.4899 28.5529 14.7825 30.1975L12.7832 32.1968ZM14.7719 34.1856L16.7711 32.1862C17.4967 32.7565 18.2913 33.2428 19.1397 33.631L18.2837 36.3276C17.0094 35.7802 15.8282 35.0561 14.7719 34.1856ZM18.4219 45.1875L20.1093 39.8722C21.3604 40.1602 22.6628 40.3125 24 40.3125C25.3372 40.3125 26.6396 40.1602 27.8907 39.8722L29.5781 45.1875H18.4219ZM28.8603 33.631C29.7087 33.2428 30.5033 32.7565 31.2289 32.1862L33.2281 34.1856C32.1718 35.0561 30.9907 35.7803 29.7163 36.3276L28.8603 33.631Z" fill="#6FB8D9"/>
</svg>
