<svg width="48" height="48" viewBox="0 0 48 48" fill="none" xmlns="http://www.w3.org/2000/svg">
<path d="M25.9541 3.8773C26.497 3.15775 26.4097 1.63156 26.3324 0.285247C26.3295 0.227216 26.3262 0.170461 26.323 0.112822C25.562 0.0401605 24.7917 0 24.012 0C21.0246 0 18.166 0.550365 15.5277 1.54809C17.4097 2.45254 20.323 4.00927 23.5611 6.30941C24.666 5.35862 25.4992 4.48089 25.9541 3.8773Z" fill="#6FB8D9"/>
<path d="M38.1144 17.5719C36.9315 17.7056 35.9339 17.8997 35.0807 18.172C39.1593 25.293 40.7495 34.2897 41.1387 40.8074C45.1792 36.6904 47.7453 31.1248 47.9879 24.9599C45.2038 21.5377 41.5155 17.1861 38.1144 17.5719Z" fill="#6FB8D9"/>
<path d="M13.8678 11.4252C16.7336 10.8289 19.4259 9.38655 21.5725 7.86408C17.0942 4.77968 13.359 3.17896 12.616 2.87427C7.96983 5.38592 4.2519 9.38772 2.08893 14.2365C4.90036 13.1164 7.94519 12.5465 10.9358 11.9912C11.9033 11.8115 12.9034 11.6258 13.8678 11.4252Z" fill="#6FB8D9"/>
<path d="M30.4563 12.123C30.7121 12.3801 30.9672 12.6416 31.2205 12.908C32.1554 13.8894 33.0037 14.9628 33.7816 16.0985C34.9144 15.6708 36.248 15.3675 37.8444 15.187C41.6059 14.7615 44.9505 17.7412 47.8211 21.0216C47.2056 16.0486 45.0728 11.5478 41.8948 7.99829C40.1602 8.20734 38.2263 8.56152 36.2552 9.14969C34.9622 9.53588 32.903 10.5852 30.4563 12.123Z" fill="#6FB8D9"/>
<path d="M27.2984 24.5173C28.2828 21.1832 29.423 18.7798 31.6321 17.2197C30.9691 16.2679 30.2556 15.3747 29.4828 14.5632C29.1253 14.1877 28.7637 13.8251 28.4006 13.4689C19.5375 19.5017 7.39679 30.5837 6.29282 40.1855C9.97796 44.2175 15.0213 46.9825 20.6987 47.767C22.766 43.6513 24.7116 35.2845 25.8681 30.3084C26.4238 27.9183 26.9034 25.8546 27.2984 24.5173Z" fill="#6FB8D9"/>
<path d="M17.2492 19.2302C20.3395 16.3825 23.603 13.8289 26.5879 11.7766C25.5929 10.8964 24.5949 10.0849 23.6152 9.3407C21.1359 11.2044 17.8899 13.04 14.3565 13.7748C13.3671 13.9808 12.3538 14.169 11.3743 14.3508C7.59996 15.0517 3.97688 15.7305 0.929983 17.4305C0.336609 19.5192 0.012085 21.7212 0.012085 24.0001C0.012085 29.0979 1.60652 33.8212 4.31672 37.708C6.07249 30.7563 12.0948 23.9798 17.2492 19.2302Z" fill="#6FB8D9"/>
<path d="M28.6552 10.4059C31.5105 8.58563 33.972 7.327 35.5691 6.85028C37.0033 6.42197 38.4102 6.11001 39.7425 5.8825C36.6639 3.20727 32.9007 1.30058 28.7464 0.469482C28.8385 2.14562 28.8786 3.98583 27.8703 5.32281C27.3912 5.95772 26.5807 6.82848 25.5262 7.77319C26.5589 8.57709 27.6085 9.45374 28.6552 10.4059Z" fill="#6FB8D9"/>
<path d="M29.6 25.1969C29.2253 26.4663 28.7526 28.4986 28.2057 30.8516C26.5911 37.7991 25.046 44.0159 23.2416 47.9803C23.4978 47.9885 23.7539 47.9999 24.0121 47.9999C29.6054 47.9999 34.7472 46.0813 38.8277 42.8737C38.6666 36.0532 37.0315 26.4059 32.9128 19.2445C31.3155 20.4317 30.4557 22.2995 29.6 25.1969Z" fill="#6FB8D9"/>
</svg>
