<svg width="46" height="42" viewBox="0 0 46 42" fill="none" xmlns="http://www.w3.org/2000/svg">
<path d="M29.7607 6.20947H40.5869V2.0542C40.5869 1.30993 39.9835 0.706543 39.2393 0.706543H31.1084C30.3641 0.706543 29.7607 1.30993 29.7607 2.0542V6.20947Z" fill="#6FB8D9"/>
<path d="M16.2393 35.8804H0V39.9458C0 40.6901 0.603391 41.2935 1.34766 41.2935H14.8916C15.6359 41.2935 16.2393 40.6901 16.2393 39.9458V35.8804Z" fill="#6FB8D9"/>
<path d="M29.7607 35.8804V39.9458C29.7607 40.6901 30.3641 41.2935 31.1084 41.2935H44.6523C45.3966 41.2935 46 40.6901 46 39.9458V35.8804H29.7607Z" fill="#6FB8D9"/>
<path d="M16.2393 33.1851V8.90479H5.03296L1.35853 23.5413C0.566465 26.6963 0.117785 29.9342 0.0204844 33.1851H16.2393Z" fill="#6FB8D9"/>
<path d="M29.7607 8.90479V33.1851H45.9795C45.8822 29.9342 45.4334 26.6963 44.6415 23.5413L40.967 8.90479H29.7607Z" fill="#6FB8D9"/>
<path d="M27.0654 14.228V11.5327H18.9346V14.228V30.4673H27.0654V14.228ZM21.6523 23.7065V18.2935C21.6523 17.5492 22.2557 16.9458 23 16.9458C23.7443 16.9458 24.3477 17.5492 24.3477 18.2935V23.7065C24.3477 24.4508 23.7443 25.0542 23 25.0542C22.2557 25.0542 21.6523 24.4508 21.6523 23.7065Z" fill="#6FB8D9"/>
<path d="M16.2393 6.20947V2.0542C16.2393 1.30993 15.6359 0.706543 14.8916 0.706543H6.76074C6.01648 0.706543 5.41309 1.30993 5.41309 2.0542V6.20947H16.2393Z" fill="#6FB8D9"/>
</svg>
