<svg width="59" height="33" viewBox="0 0 59 33" fill="none" xmlns="http://www.w3.org/2000/svg">
<path d="M53.2188 27.1094C53.2188 15.8143 44.0295 6.625 32.7344 6.625H26.2656C14.9705 6.625 5.78125 15.8143 5.78125 27.1094V28.1875H53.2188V27.1094Z" fill="#6FB8D9"/>
<path d="M1.46875 32.5H57.5312C57.8171 32.4997 58.0911 32.386 58.2932 32.1839C58.4954 31.9818 58.6091 31.7077 58.6094 31.4219V30.3438H0.390625V31.4219C0.390946 31.7077 0.504637 31.9818 0.706755 32.1839C0.908873 32.386 1.18291 32.4997 1.46875 32.5Z" fill="#6FB8D9"/>
<path d="M33.8125 0.15625H25.1875C24.9016 0.15625 24.6273 0.269838 24.4251 0.472025C24.223 0.674213 24.1094 0.948438 24.1094 1.23438C24.1094 1.52031 24.223 1.79454 24.4251 1.99672C24.6273 2.19891 24.9016 2.3125 25.1875 2.3125H27.3438V4.46875H31.6562V2.3125H33.8125C34.0984 2.3125 34.3727 2.19891 34.5749 1.99672C34.777 1.79454 34.8906 1.52031 34.8906 1.23438C34.8906 0.948438 34.777 0.674213 34.5749 0.472025C34.3727 0.269838 34.0984 0.15625 33.8125 0.15625Z" fill="#6FB8D9"/>
</svg>
