<svg width="18" height="18" viewBox="0 0 18 18" fill="none" xmlns="http://www.w3.org/2000/svg">
<path d="M2.43 0.149902C1.77001 0.149902 1.17 0.389914 0.72 0.839914C0.240012 1.3199 0 1.91988 0 2.54988C0 3.20987 0.27 3.80988 0.72 4.25988C1.17 4.70988 1.8 4.97988 2.40001 4.94989C2.40001 4.94989 2.43 4.94989 2.46002 4.94989C3.06003 4.94989 3.63002 4.70988 4.08002 4.25988C4.53002 3.80988 4.80002 3.20987 4.80002 2.54988C4.83001 1.91988 4.56001 1.31987 4.11001 0.869867C3.66001 0.389879 3.06 0.149902 2.43 0.149902ZM3.66001 3.8399C3.33 4.16991 2.88 4.3799 2.40001 4.34992C1.95001 4.34992 1.47002 4.16991 1.14001 3.8399C0.780012 3.50989 0.600012 3.0299 0.600012 2.54991C0.600012 2.06993 0.780012 1.61993 1.14001 1.25993C1.47002 0.929914 1.92002 0.749914 2.43 0.749914C2.88 0.749914 3.33 0.929914 3.66001 1.25993C4.02001 1.61993 4.20001 2.06993 4.20001 2.54991C4.20001 3.0299 4.02001 3.50989 3.66001 3.8399Z" fill="white"/>
<path d="M3.6 5.5498H1.17C0.690011 5.5498 0.299988 5.93979 0.299988 6.4498V16.9498C0.299988 17.4298 0.719999 17.8498 1.19999 17.8498H3.6C4.07999 17.8498 4.5 17.4298 4.5 16.9798V6.4498C4.5 5.96978 4.07999 5.5498 3.6 5.5498ZM3.89999 16.9798C3.89999 17.1298 3.74998 17.2498 3.6 17.2498H1.19999C1.04998 17.2498 0.899999 17.0998 0.899999 16.9498V6.4498C0.899999 6.29979 1.01999 6.14982 1.17 6.14982H3.6C3.75001 6.14982 3.89999 6.29983 3.89999 6.4498V16.9798Z" fill="white"/>
<path d="M13.8 5.25H13.17C12 5.25 10.89 5.76001 10.17 6.57001V6.15C10.17 5.85001 9.86999 5.54999 9.56997 5.54999H6.56998C6.29998 5.54999 5.96997 5.79 5.96997 6.11998V17.31C5.96997 17.64 6.29998 17.85 6.56998 17.85H9.86999C10.14 17.85 10.47 17.64 10.47 17.31V10.83C10.47 9.83997 11.19 9.05995 12.12 9.05995C12.6 9.05995 13.05 9.23995 13.38 9.56997C13.68 9.83997 13.8 10.26 13.8 10.8V17.25C13.8 17.55 14.1 17.85 14.4 17.85H17.4C17.7 17.85 18 17.55 18 17.25V9.50999C18 7.11001 16.17 5.25 13.8 5.25ZM17.4 17.22L17.37 17.25H14.43L14.4 10.8C14.4 10.08 14.22 9.54001 13.83 9.15002C13.38 8.70002 12.78 8.46001 12.15 8.46001C10.89 8.49 9.89998 9.51002 9.89998 10.83V17.25H6.59997V6.15H9.56997L9.59996 6.17999V8.06999L10.41 7.25999L10.4399 7.23C11.04 6.39001 12.0899 5.85001 13.2 5.85001H13.83C15.8399 5.85001 17.4 7.47001 17.4 9.51002V17.22Z" fill="white"/>
</svg>
