<svg width="42" height="38" viewBox="0 0 42 38" fill="none" xmlns="http://www.w3.org/2000/svg">
<path d="M2.15294 36.6828L8.78125 33.5939V29.7812H0.875V35.8684C0.875001 36.0195 0.913085 36.1681 0.985731 36.3005C1.05838 36.4329 1.16324 36.5449 1.29062 36.6261C1.418 36.7073 1.56379 36.755 1.71452 36.7649C1.86524 36.7748 2.01603 36.7466 2.15294 36.6828Z" fill="#6FB8D9"/>
<path d="M15.9688 24.0497V35.7855L20.9111 37.6389L23.1562 36.8036V27.2761L18.6155 24.0327L15.9688 24.0497Z" fill="#6FB8D9"/>
<path d="M0.875 17.5625H8.78125V22.5938H0.875V17.5625Z" fill="#6FB8D9"/>
<path d="M15.9688 17.5625H21.9509L24.0425 12.3336L21.2144 13.2174C21.0748 13.261 20.9252 13.261 20.7856 13.2174L18.5235 12.5105L15.9688 16.3426V17.5625Z" fill="#6FB8D9"/>
<path d="M9.5 11.8125C12.1752 11.8125 13.8125 10.8818 13.8125 10.375C13.8125 9.91536 12.4655 9.10695 10.2188 8.96059V4.625H15.7891C15.8367 4.625 15.8824 4.60607 15.9161 4.57237C15.9498 4.53867 15.9688 4.49297 15.9688 4.44531V0.3125H8.96094C8.91328 0.3125 8.86758 0.331431 8.83388 0.365129C8.80018 0.398827 8.78125 0.444531 8.78125 0.492188V8.96059C6.53453 9.10695 5.1875 9.91536 5.1875 10.375C5.1875 10.8818 6.82481 11.8125 9.5 11.8125Z" fill="#6FB8D9"/>
<path d="M29.7162 31.5521C29.5022 31.3053 29.2831 31.0436 29.0637 30.7693C27.0515 28.2539 26.0312 25.987 26.0312 24.0312C26.0311 23.0898 26.2367 22.1597 26.6339 21.3061C27.031 20.4525 27.61 19.6961 28.3303 19.0898L30.6853 10.2582L25.8119 11.7811L23.1049 18.5488C23.0514 18.682 22.9593 18.7962 22.8403 18.8767C22.7214 18.9571 22.5811 19 22.4375 19H15.25C15.0594 19 14.8766 18.9243 14.7418 18.7895C14.607 18.6547 14.5312 18.4719 14.5312 18.2812V16.125C14.5312 15.9831 14.5732 15.8444 14.6519 15.7263L17.0938 12.064L14.9231 11.3856C14.6542 11.7809 14.1763 12.2027 13.3407 12.5608C12.3031 13.0051 10.939 13.25 9.5 13.25C8.06097 13.25 6.69688 13.0051 5.65927 12.5603C5.03998 12.2949 4.61708 11.9943 4.33021 11.6959L1.4509 12.8034C1.2814 12.8686 1.13563 12.9836 1.03282 13.1333C0.930015 13.283 0.874989 13.4604 0.875 13.642V16.125H9.5C9.69062 16.125 9.87344 16.2007 10.0082 16.3355C10.143 16.4703 10.2188 16.6531 10.2188 16.8437V23.3125C10.2188 23.5031 10.143 23.6859 10.0082 23.8207C9.87344 23.9555 9.69062 24.0312 9.5 24.0312H0.875V28.3437H9.5C9.69062 28.3437 9.87344 28.4195 10.0082 28.5542C10.143 28.689 10.2188 28.8719 10.2188 29.0625V33.6293L14.5312 35.2465V23.3356C14.5312 23.1457 14.6063 22.9636 14.7401 22.8289C14.8739 22.6943 15.0556 22.618 15.2454 22.6168L18.8392 22.5937H18.8438C18.9936 22.5937 19.1397 22.6405 19.2616 22.7276L24.2929 26.3213C24.3859 26.3879 24.4618 26.4756 24.5141 26.5773C24.5665 26.6791 24.5938 26.7918 24.5938 26.9062V36.2687L27.2195 35.2917C26.9243 34.9617 26.7576 34.5365 26.75 34.0937C26.75 32.9697 27.8793 32.0299 29.7162 31.5521Z" fill="#6FB8D9"/>
<path d="M38.9687 24.0312C38.9687 25.134 38.6443 26.3357 38.0008 27.625H41.125V23.3125H38.929C38.9555 23.5512 38.9688 23.7911 38.9687 24.0312Z" fill="#6FB8D9"/>
<path d="M32.5 25.4688C33.2939 25.4688 33.9375 24.8252 33.9375 24.0312C33.9375 23.2373 33.2939 22.5938 32.5 22.5938C31.7061 22.5938 31.0625 23.2373 31.0625 24.0312C31.0625 24.8252 31.7061 25.4688 32.5 25.4688Z" fill="#6FB8D9"/>
<path d="M32.4756 9.69824L32.3083 9.75044L30.1023 18.0232C30.9115 17.7003 31.7775 17.5442 32.6485 17.5642C33.5195 17.5843 34.3775 17.78 35.171 18.1397C35.9645 18.4994 36.6772 19.0157 37.2663 19.6576C37.8554 20.2994 38.3087 21.0537 38.5992 21.875H41.125V13.642C41.125 13.4604 41.07 13.2831 40.9672 13.1334C40.8644 12.9837 40.7186 12.8686 40.5491 12.8034L32.4756 9.69824Z" fill="#6FB8D9"/>
<path d="M34.1507 32.7836C33.4816 33.4692 33.0075 33.886 32.9733 33.9156C32.8423 34.0302 32.6741 34.0934 32.5 34.0934C32.3259 34.0934 32.1577 34.0302 32.0267 33.9156C31.9925 33.8856 31.5184 33.4688 30.8493 32.7836C29.1318 33.0598 28.1875 33.7164 28.1875 34.0938C28.1875 34.6006 29.8248 35.5313 32.5 35.5313C35.1752 35.5313 36.8125 34.6006 36.8125 34.0938C36.8125 33.7164 35.8682 33.0598 34.1507 32.7836Z" fill="#6FB8D9"/>
<path d="M35.9362 30.7695C35.7168 31.0438 35.4978 31.3055 35.2838 31.5523C37.1207 32.03 38.25 32.9697 38.25 34.0938C38.25 34.3979 38.1619 34.8625 37.7397 35.3389L39.904 36.1714C40.0401 36.2237 40.1869 36.2422 40.3317 36.2251C40.4765 36.208 40.615 36.156 40.7352 36.0734C40.8554 35.9909 40.9537 35.8803 41.0216 35.7513C41.0895 35.6222 41.125 35.4786 41.125 35.3328V29.0625H37.1743C36.7904 29.6518 36.3772 30.2215 35.9362 30.7695Z" fill="#6FB8D9"/>
<path d="M30.1863 29.8711C30.9027 30.761 31.6756 31.604 32.5 32.3949C33.3298 31.5988 34.1074 30.75 34.8279 29.8538C36.5969 27.6385 37.5312 25.6251 37.5312 24.0312C37.5312 22.6969 37.0012 21.4172 36.0576 20.4736C35.1141 19.5301 33.8344 19 32.5 19C31.1656 19 29.8859 19.5301 28.9424 20.4736C27.9988 21.4172 27.4688 22.6969 27.4688 24.0312C27.4688 25.6297 28.4084 27.6491 30.1863 29.8711ZM32.5 21.1562C33.0686 21.1562 33.6245 21.3249 34.0973 21.6408C34.5701 21.9567 34.9386 22.4057 35.1562 22.931C35.3738 23.4564 35.4307 24.0344 35.3198 24.5921C35.2088 25.1498 34.935 25.6621 34.5329 26.0642C34.1309 26.4663 33.6186 26.7401 33.0609 26.851C32.5032 26.9619 31.9251 26.905 31.3998 26.6874C30.8744 26.4698 30.4254 26.1013 30.1095 25.6285C29.7936 25.1557 29.625 24.5999 29.625 24.0312C29.6259 23.269 29.929 22.5382 30.468 21.9993C31.007 21.4603 31.7378 21.1571 32.5 21.1562Z" fill="#6FB8D9"/>
</svg>
