<svg width="53" height="53" viewBox="0 0 53 53" fill="none" xmlns="http://www.w3.org/2000/svg">
<path d="M24.3484 7.63023V8.78346C25.9488 8.6751 26.8057 8.80489 26.8946 8.81945C27.4098 8.90356 27.8497 9.23634 28.0713 9.70863L30.3204 14.5019C30.5925 14.5654 30.8517 14.6996 31.066 14.9087C31.3373 15.1731 31.662 15.3802 32.03 15.4699C32.7647 15.6491 33.4938 15.4449 34.0089 14.9439C34.5406 14.4271 35.3518 14.2957 35.9785 14.6919C36.8746 15.258 36.9708 16.4574 36.2681 17.1601C35.2766 18.152 33.958 18.6983 32.5552 18.6983C32.4651 18.6983 32.3753 18.6959 32.2855 18.6914L35.3089 25.1357C35.4367 25.4074 35.5576 25.6812 35.6724 25.9561C39.0767 24.8826 42.9489 25.68 45.6544 28.3548C46.2593 28.9524 46.3265 29.9286 45.7612 30.5642C45.4454 30.9192 45.0111 31.0967 44.5768 31.0967C44.172 31.0967 43.7669 30.9423 43.4583 30.6333C41.6246 28.8 38.9918 28.2424 36.6708 28.9577C37.5511 32.4675 37.4925 36.0898 36.5839 39.4864C37.0117 39.6279 37.4472 39.754 37.8895 39.864C38.4031 39.9914 38.9396 39.9926 39.4536 39.8657C47.3657 37.9086 53 30.7931 53 22.5494V7.63023C53 6.89147 52.5439 6.22913 51.8524 5.96913C49.6733 5.15031 45.4619 4.03711 38.6748 4.03711C31.8872 4.03711 27.6755 5.15071 25.496 5.96954C24.8045 6.22913 24.3484 6.89147 24.3484 7.63023ZM41.8397 14.9228C42.4576 14.305 43.4592 14.305 44.0774 14.9228C44.4713 15.3167 44.9949 15.5338 45.5521 15.5338C46.1093 15.5338 46.6334 15.3167 47.0272 14.9228C47.6451 14.3046 48.6471 14.3046 49.2649 14.9228C49.8828 15.5407 49.8828 16.5423 49.2649 17.1601C48.273 18.152 46.9548 18.6983 45.5521 18.6983C44.1498 18.6983 42.8312 18.152 41.8393 17.1601C41.2218 16.5423 41.2218 15.5407 41.8397 14.9228Z" fill="#6FB8D9"/>
<path d="M32.4445 26.4797L26.0738 12.9014C25.7807 12.2762 25.1313 11.8998 24.4426 11.9519C22.1422 12.1258 17.8273 12.8888 11.6124 15.8047C5.46733 18.6877 2.12733 21.4847 0.502217 23.1514C-0.0133396 23.6803 -0.14516 24.4737 0.168621 25.1425L6.50531 38.6493C10.0066 46.1121 18.1306 50.1609 26.1252 48.5718C26.6419 48.4691 27.1255 48.2423 27.5348 47.9103C33.867 42.7782 35.9458 33.943 32.4445 26.4797ZM19.6417 25.4676C20.6255 22.7447 23.6412 21.3294 26.3641 22.3136C27.1858 22.6104 27.6112 23.5174 27.3144 24.3395C27.0176 25.1611 26.1106 25.5869 25.2885 25.2897C24.2069 24.8991 23.0088 25.4611 22.6178 26.5428C22.3849 27.1873 21.7775 27.5881 21.1297 27.5881C20.951 27.5881 20.7694 27.5577 20.5919 27.4934C19.7703 27.1962 19.3445 26.2893 19.6417 25.4676ZM13.5225 30.81C12.9985 30.6207 12.432 30.6466 11.9274 30.8836C11.4231 31.1201 11.041 31.539 10.8518 32.0631C10.6188 32.7076 10.0111 33.1084 9.36332 33.1084C9.18499 33.1084 9.00344 33.0776 8.82592 33.0137C8.00387 32.7169 7.57848 31.81 7.87528 30.9879C8.35202 29.6689 9.31358 28.6143 10.5833 28.0187C11.8534 27.4231 13.2787 27.3572 14.5977 27.8339C15.4198 28.1307 15.8452 29.0377 15.5484 29.8597C15.2512 30.6814 14.3442 31.1068 13.5225 30.81ZM18.8354 41.1527C17.7174 41.1527 16.5815 40.9626 15.4707 40.5611C14.6487 40.2643 14.2233 39.3573 14.5201 38.5352C14.8173 37.7136 15.7239 37.2878 16.5459 37.585C20.0545 38.8527 23.9404 37.0294 25.2081 33.5212C25.5049 32.6991 26.4119 32.2738 27.2339 32.5706C28.0556 32.8678 28.481 33.7747 28.1842 34.5968C26.7248 38.6351 22.9012 41.1527 18.8354 41.1527Z" fill="#6FB8D9"/>
</svg>
