<svg width="43" height="43" viewBox="0 0 43 43" fill="none" xmlns="http://www.w3.org/2000/svg">
<g clip-path="url(#clip0)">
<path d="M28.3786 30.1354L30.3449 26.9447L33.8934 25.7345L34.2866 22.0075L36.9563 19.3792L35.687 15.8514L36.9563 12.3234L34.2866 9.69516L33.8935 5.96827L30.345 4.75805L28.3787 1.56723L24.6594 2.0163L21.5 0L18.3406 2.01646L14.6214 1.5674L12.6551 4.75813L9.10661 5.96835L8.71348 9.69524L6.0437 12.3235L7.31304 15.8515L6.0437 19.3794L8.7134 22.0076L9.10653 25.7346L12.655 26.9448L14.6214 30.1355L18.3406 29.6865L21.5 31.7029L24.6594 29.6865L28.3786 30.1354ZM10.63 15.8515C10.63 9.85775 15.5063 4.98145 21.5 4.98145C27.4937 4.98145 32.37 9.85775 32.37 15.8515C32.37 21.8452 27.4937 26.7215 21.5 26.7215C15.5063 26.7215 10.63 21.8452 10.63 15.8515Z" fill="#6FB8D9"/>
<path d="M21.5 7.50256C16.8964 7.50256 13.1511 11.2478 13.1511 15.8514C13.1511 20.4551 16.8964 24.2003 21.5 24.2003C26.1036 24.2003 29.8489 20.4551 29.8489 15.8514C29.8489 11.2478 26.1036 7.50256 21.5 7.50256Z" fill="#6FB8D9"/>
<path d="M17.7458 32.2977L13.3215 32.8318L10.984 29.0385L10.1893 28.7676L6.76168 39.4811L12.9324 39.1418L17.7603 43L20.6013 34.1202L17.7458 32.2977Z" fill="#6FB8D9"/>
<path d="M32.016 29.0386L29.6784 32.8318L25.2542 32.2977L22.3987 34.1202L25.2397 43L30.0676 39.1418L36.2383 39.4811L32.8107 28.7676L32.016 29.0386Z" fill="#6FB8D9"/>
</g>
<defs>
<clipPath id="clip0">
<rect width="43" height="43" fill="white"/>
</clipPath>
</defs>
</svg>
