<svg width="15" height="15" viewBox="0 0 15 15" fill="none" xmlns="http://www.w3.org/2000/svg">
<path d="M7.5 0C5.31917 0 3.54492 1.77425 3.54492 3.95508C3.54492 6.13591 5.31917 7.91016 7.5 7.91016C9.68083 7.91016 11.4551 6.13591 11.4551 3.95508C11.4551 1.77425 9.68083 0 7.5 0Z" fill="white"/>
<path d="M12.4209 10.494C11.3381 9.39454 9.90261 8.78906 8.37891 8.78906H6.62109C5.09742 8.78906 3.66193 9.39454 2.57912 10.494C1.50161 11.5881 0.908203 13.0322 0.908203 14.5605C0.908203 14.8032 1.10496 15 1.34766 15H13.6523C13.895 15 14.0918 14.8032 14.0918 14.5605C14.0918 13.0322 13.4984 11.5881 12.4209 10.494Z" fill="white"/>
</svg>
