<svg width="29" height="29" viewBox="0 0 29 29" fill="none" xmlns="http://www.w3.org/2000/svg">
<path d="M14.5 7C12.3192 7 10.5449 8.77425 10.5449 10.9551C10.5449 13.1359 12.3192 14.9102 14.5 14.9102C16.6808 14.9102 18.4551 13.1359 18.4551 10.9551C18.4551 8.77425 16.6808 7 14.5 7Z" fill="#12161E"/>
<path d="M19.4209 17.494C18.3381 16.3945 16.9026 15.7891 15.3789 15.7891H13.6211C12.0974 15.7891 10.6619 16.3945 9.57912 17.494C8.50161 18.5881 7.9082 20.0322 7.9082 21.5605C7.9082 21.8032 8.10496 22 8.34766 22H20.6523C20.895 22 21.0918 21.8032 21.0918 21.5605C21.0918 20.0322 20.4984 18.5881 19.4209 17.494Z" fill="#12161E"/>
<circle cx="14.5" cy="14.5" r="14" stroke="#12161E"/>
</svg>
