<svg width="107" height="29" viewBox="0 0 107 29" fill="none" xmlns="http://www.w3.org/2000/svg">
<path d="M7.18547 1.20178C6.79835 0.802876 6.33306 0.483688 5.81713 0.263094C5.3012 0.0425009 4.7451 -0.075016 4.18174 -0.0825039C3.61837 -0.0899917 3.05919 0.0127016 2.53728 0.2195C2.01536 0.426299 1.54131 0.733003 1.14317 1.12146C0.745037 1.50993 0.430901 1.97226 0.21935 2.4811C0.00779948 2.98995 -0.0968677 3.53497 -0.0884589 4.08392C-0.0800501 4.63288 0.0412638 5.17461 0.268306 5.67708C0.495347 6.17954 0.823505 6.63253 1.23336 7.00924L4.21325 9.92044L7.18547 7.00924C7.57691 6.62798 7.88743 6.1753 8.09929 5.67707C8.31114 5.17884 8.42019 4.64482 8.42019 4.10551C8.42019 3.5662 8.31114 3.03217 8.09929 2.53394C7.88743 2.03571 7.57691 1.58303 7.18547 1.20178Z" fill="white"/>
<path d="M34.2036 4.69519H43.3194C50.9798 4.69519 56.1506 9.63676 56.1506 16.6386C56.1506 23.6404 50.9722 28.5819 43.3194 28.5819H34.2036V4.69519ZM43.3194 24.8496C48.6817 24.8496 51.7459 21.1173 51.7459 16.6386C51.7459 12.1598 48.8043 8.36031 43.3194 8.36031H38.5011V24.8496H43.3194Z" fill="white"/>
<path d="M68.1007 10.8312C73.463 10.8312 76.8565 14.8098 76.8565 20.259V21.1547H63.1368C63.258 22.5106 63.9174 23.7669 64.9746 24.6563C66.0319 25.5458 67.4035 25.9981 68.7978 25.9171C70.6609 25.9152 72.4571 25.2396 73.8383 24.0211L75.6002 26.4919C73.6174 28.1944 71.0405 29.092 68.3994 29C63.0372 29 59.0921 25.3797 59.0921 19.9007C59.0921 14.8845 62.815 10.8312 68.1007 10.8312ZM63.0985 18.4973H73.1029C73.0965 17.8724 72.9605 17.2551 72.7031 16.6827C72.4456 16.1102 72.072 15.5944 71.6047 15.1663C71.1375 14.7382 70.5862 14.4065 69.984 14.1913C69.3818 13.9761 68.7412 13.8818 68.1007 13.9141C66.8171 13.8876 65.5741 14.3529 64.6387 15.2099C63.7034 16.0669 63.1503 17.2473 63.0985 18.4973Z" fill="white"/>
<path d="M80.8935 23.5882C82.5308 25.0949 84.6788 25.9634 86.9298 26.0291C89.228 26.0291 90.423 25.2005 90.423 23.9091C90.423 22.4162 88.5462 21.8713 86.3783 21.401C83.3142 20.7591 79.6831 19.9678 79.6831 16.1012C79.6831 13.2721 82.1804 10.8311 86.6694 10.8311C89.1995 10.7781 91.6586 11.6488 93.5637 13.2721L91.9627 15.8921C91.2793 15.2135 90.4604 14.6786 89.5566 14.3204C88.6528 13.9622 87.6832 13.7883 86.7077 13.8095C84.6854 13.8095 83.3984 14.556 83.3984 15.7503C83.3984 16.9447 85.1603 17.5418 87.2286 17.9897C90.2927 18.6317 94.1229 19.4826 94.1229 23.5807C94.1229 26.6263 91.5107 28.9552 86.7307 28.9552C83.9467 29.0714 81.2243 28.1354 79.1316 26.3426L80.8935 23.5882Z" fill="white"/>
<path d="M98.8188 24.5585V14.5559H95.8772V11.2641H98.8188V6.53149H102.649V11.2641H106.249V14.5559H102.649V23.6254C102.649 24.8049 103.239 25.6707 104.342 25.6707C104.976 25.6887 105.592 25.4697 106.065 25.0586L106.985 27.8877C105.967 28.7057 104.661 29.1047 103.346 29C100.351 29 98.8188 27.4249 98.8188 24.5585Z" fill="white"/>
<path d="M1.37891 11.264H7.03992V28.5819H1.37891V11.264Z" fill="white"/>
<path d="M23.188 18.5719C23.188 16.4594 22.0466 15.7055 20.277 15.7055C19.6128 15.7132 18.9591 15.8684 18.3657 16.1595C17.7723 16.4505 17.2549 16.8697 16.8528 17.385V28.5819H11.1612V11.264H16.8528V13.3765C17.6281 12.5499 18.5764 11.8949 19.6335 11.4558C20.6907 11.0167 21.8323 10.8037 22.9811 10.8311C27.0258 10.8311 28.8643 13.1227 28.8643 16.3176V28.5819H23.188V18.5719Z" fill="white"/>
</svg>
